<?xml version="1.0" standalone="no"?>
<!DOCTYPE svg PUBLIC "-//W3C//DTD SVG 20010904//EN"
 "http://www.w3.org/TR/2001/REC-SVG-20010904/DTD/svg10.dtd">
<svg version="1.0" xmlns="http://www.w3.org/2000/svg"
 width="260.000000pt" height="260.000000pt" viewBox="0 0 260.000000 260.000000"
 preserveAspectRatio="xMidYMid meet">
<metadata>
Created by potrace 1.11, written by Peter Selinger 2001-2013
</metadata>
<g transform="translate(0.000000,260.000000) scale(0.100000,-0.100000)"
fill="#000000" stroke="none">
<path d="M503 2266 c-121 -50 -157 -77 -185 -138 -14 -29 -51 -87 -82 -128
-68 -89 -107 -168 -135 -270 -40 -144 -28 -170 97 -215 41 -15 115 -47 165
-73 51 -25 103 -48 117 -50 13 -2 27 -7 30 -12 3 -5 17 -7 31 -6 22 2 27 -1
27 -20 0 -13 -4 -22 -7 -19 -4 2 -13 0 -21 -5 -13 -8 -11 -12 8 -25 12 -9 22
-21 22 -27 0 -7 -6 -6 -15 2 -10 9 -15 9 -15 1 0 -6 4 -11 9 -11 6 0 8 -9 6
-21 -3 -15 0 -19 10 -15 8 3 17 1 20 -5 4 -5 11 -7 16 -4 5 4 9 1 9 -5 0 -6 5
-8 11 -4 7 4 7 9 2 13 -6 3 -10 14 -10 23 0 14 3 15 14 6 19 -15 37 10 21 29
-6 7 -7 13 -2 13 4 0 -3 11 -16 25 -13 14 -18 25 -12 25 6 0 14 -5 17 -10 4
-6 11 -8 16 -5 5 3 6 -1 2 -10 -5 -15 -3 -15 16 -4 28 18 27 28 -4 25 -13 -2
-22 0 -20 4 3 4 -14 6 -36 5 -22 -1 -37 0 -34 4 11 11 110 8 117 -3 5 -8 8 -7
8 2 0 6 4 12 8 12 5 0 9 -7 9 -15 0 -8 -3 -12 -7 -10 -4 2 -7 -9 -7 -25 0 -16
4 -28 8 -27 4 1 6 -1 6 -4 -1 -3 5 -14 13 -24 14 -17 14 -17 -7 -4 -13 8 -23
16 -23 20 0 3 -7 6 -15 6 -8 0 -15 -6 -15 -14 0 -7 4 -12 9 -10 13 3 71 -35
71 -47 0 -5 -8 -2 -17 5 -15 12 -16 12 -10 -6 7 -19 7 -19 -8 -1 -8 10 -12 23
-9 27 3 5 1 9 -4 9 -17 0 -21 -13 -11 -33 9 -16 8 -22 -5 -29 -9 -5 -14 -13
-11 -19 3 -5 -1 -6 -10 -3 -10 4 -15 2 -13 -7 2 -8 -3 -13 -9 -12 -7 2 -13 -4
-13 -13 0 -8 -5 -12 -10 -9 -8 5 -7 11 1 21 11 13 6 18 -14 15 -5 -1 -6 2 -3
7 3 5 -5 7 -17 6 -12 -1 -25 -3 -29 -3 -12 -1 -10 -31 1 -31 6 0 12 4 16 10 3
5 12 7 21 3 8 -3 12 -8 9 -12 -7 -6 -12 -7 -40 -10 -8 0 -15 -5 -15 -9 0 -5 7
-9 15 -9 8 0 15 5 15 10 0 6 2 8 5 5 10 -10 -7 -37 -20 -32 -7 3 -15 -2 -19
-12 -5 -14 -4 -15 9 -4 8 7 15 8 15 2 0 -14 -43 -40 -58 -35 -6 3 -9 10 -6 15
5 7 2 8 -6 3 -10 -6 -9 -11 5 -21 15 -11 22 -10 45 6 43 30 49 23 10 -10 -19
-17 -29 -30 -23 -30 7 0 14 4 17 9 3 5 17 9 30 9 22 0 23 -3 13 -19 -7 -11
-15 -19 -20 -19 -4 0 -5 5 -2 10 3 6 1 10 -4 10 -6 0 -11 -5 -11 -11 0 -5 -5
-7 -11 -3 -8 5 -8 1 0 -13 6 -11 7 -24 3 -28 -4 -5 -2 -5 4 -2 6 3 17 -5 24
-18 7 -14 18 -25 23 -25 5 0 -2 15 -17 34 -31 42 -34 56 -5 30 12 -10 23 -18
25 -16 2 1 7 2 12 2 4 0 1 -4 -6 -8 -9 -6 -7 -13 8 -30 11 -11 20 -23 20 -25
0 -6 -45 -2 -57 6 -25 16 -11 -9 18 -31 25 -21 32 -22 46 -10 15 11 16 11 10
-5 -4 -10 -7 -21 -7 -23 0 -3 -5 -2 -12 2 -7 4 -8 3 -4 -4 4 -6 12 -9 19 -6 7
2 24 -7 37 -21 25 -26 12 -36 -14 -10 -21 21 -28 19 -14 -4 7 -11 15 -18 18
-16 4 3 13 -7 20 -20 7 -13 17 -22 22 -19 4 3 8 1 8 -5 0 -5 -6 -11 -12 -14
-7 -3 2 -4 21 -3 20 0 36 -4 38 -12 3 -8 -1 -10 -14 -5 -11 3 -7 -3 10 -17 26
-21 27 -23 10 -37 -16 -13 -16 -14 -1 -9 17 5 31 -7 34 -32 2 -8 5 -17 8 -20
9 -8 2 30 -7 46 -10 16 5 16 22 0 11 -10 13 -10 7 0 -4 6 -3 12 2 12 6 0 13
-7 16 -16 3 -8 10 -13 15 -10 5 4 12 1 14 -4 3 -6 4 -5 2 2 -1 7 -8 12 -14 10
-16 -3 -14 15 3 21 8 3 18 -5 25 -19 9 -20 8 -26 -4 -30 -8 -4 -15 -11 -15
-16 0 -6 6 -5 15 2 15 13 21 2 8 -16 -5 -5 -1 -2 8 7 9 10 15 28 14 41 -1 12
3 26 9 30 7 5 6 8 -3 8 -11 0 -9 4 5 15 16 13 16 14 2 9 -10 -3 -18 -1 -18 4
0 16 14 22 30 12 11 -7 11 -11 1 -24 -11 -13 -11 -16 0 -16 9 0 10 -3 4 -8 -5
-4 -12 -16 -13 -27 -2 -11 -1 -17 3 -13 4 3 15 -2 24 -11 10 -10 39 -24 64
-32 26 -7 47 -17 47 -21 0 -4 6 -5 13 -3 16 7 70 -9 74 -21 2 -5 -6 -10 -17
-11 -13 -1 -18 2 -14 9 4 7 2 8 -5 4 -6 -4 -9 -12 -6 -17 8 -11 48 -5 52 8 4
10 50 8 83 -3 12 -5 12 -8 -4 -20 -11 -8 -15 -14 -8 -14 6 0 17 8 24 18 15 19
30 25 75 25 17 1 30 4 28 7 -4 6 9 9 55 13 14 1 27 5 30 9 3 4 15 9 25 11 11
2 32 9 46 15 14 5 34 10 44 9 10 -1 19 4 21 11 1 7 0 8 -3 2 -2 -5 -9 -10 -14
-10 -5 0 -4 9 3 19 7 11 16 19 22 18 5 -1 12 6 14 15 2 10 -1 18 -7 18 -6 0
-7 -8 -4 -18 6 -14 4 -15 -9 -5 -8 7 -14 25 -13 40 1 16 -2 36 -7 46 -5 11 -5
17 2 17 5 0 10 5 10 11 0 5 -4 8 -9 5 -8 -5 -8 15 -1 34 1 3 2 9 1 13 -1 5 3
6 8 3 5 -4 12 -2 16 4 3 6 -3 10 -15 10 -13 0 -20 5 -17 13 4 13 21 14 47 3
11 -5 16 0 17 14 1 11 -2 20 -8 20 -5 0 -9 -5 -9 -11 0 -5 -5 -7 -11 -3 -15 9
11 25 32 19 9 -3 16 0 16 7 0 7 2 19 4 27 2 7 -2 16 -9 18 -7 3 -10 -1 -6 -10
3 -8 1 -18 -5 -22 -7 -3 -8 0 -5 9 3 9 1 16 -5 16 -6 0 -11 4 -11 8 0 8 7 10
50 14 24 3 25 11 5 28 -12 10 -15 10 -15 -1 0 -11 -2 -11 -10 1 -6 9 -5 20 3
29 10 12 9 14 -6 8 -11 -4 -16 -3 -12 4 8 13 30 6 31 -9 3 -25 5 -27 15 -12 8
12 9 12 7 -5 -2 -13 3 -20 17 -22 11 -1 14 0 7 3 -10 5 -8 9 8 18 25 12 29 28
9 35 -6 2 -9 -1 -5 -7 3 -6 1 -14 -5 -18 -13 -7 -31 15 -22 28 2 5 -1 15 -7
23 -7 8 -9 15 -4 15 5 0 2 5 -6 10 -8 5 -10 10 -4 10 6 0 17 -7 24 -15 7 -8 9
-15 4 -15 -10 0 17 -20 28 -20 16 0 -16 50 -35 56 -18 6 -18 7 -4 15 9 5 28 7
42 5 18 -3 25 -1 22 7 -2 7 -16 11 -31 11 -29 -1 -27 8 4 13 10 1 22 -2 25 -7
4 -6 11 -7 17 -4 6 4 1 12 -13 20 -13 7 -18 13 -11 14 7 0 11 4 7 9 -3 5 0 13
6 17 8 4 9 3 5 -4 -4 -7 -3 -12 2 -12 17 0 22 13 10 27 -6 8 -7 13 -2 11 5 -2
9 0 9 3 0 4 8 15 17 25 9 11 17 23 17 29 0 5 5 11 13 13 11 3 11 2 0 -6 -11
-7 -11 -10 2 -15 9 -4 13 -13 10 -22 -3 -8 -10 -12 -15 -9 -5 3 -6 10 -3 16 4
6 3 8 -3 5 -5 -4 -9 -19 -8 -34 1 -15 -3 -34 -9 -42 -13 -17 -16 -62 -3 -54 6
4 7 1 2 -7 -6 -9 -4 -11 5 -5 8 5 11 4 6 -3 -4 -6 -14 -9 -24 -6 -14 5 -14 3
2 -10 11 -9 17 -17 13 -17 -4 -1 -12 -2 -19 -3 -6 0 -13 -8 -15 -16 -4 -12 -3
-12 5 -1 7 9 12 10 16 2 4 -6 2 -11 -4 -11 -6 0 -9 -4 -6 -9 3 -5 -4 -21 -16
-37 -13 -15 -16 -24 -8 -20 12 7 13 7 2 -5 -11 -11 -14 -12 -21 -1 -7 11 -10
10 -14 -3 -4 -9 -3 -14 2 -11 5 3 17 -2 28 -12 10 -9 13 -13 6 -8 -19 13 -28
-1 -13 -19 7 -9 9 -15 4 -13 -10 3 -51 -23 -53 -34 0 -5 -1 -12 -1 -17 0 -11
-19 -9 -40 4 -13 8 -13 7 -1 -8 7 -9 10 -17 7 -17 -4 0 -2 -9 4 -20 7 -14 7
-20 0 -20 -5 0 -10 8 -10 18 -1 13 -4 11 -14 -8 -8 -14 -12 -28 -10 -32 3 -5
0 -8 -6 -8 -7 0 -10 7 -7 14 4 10 1 13 -8 10 -7 -3 -12 -14 -10 -25 2 -10 0
-19 -4 -19 -4 0 -8 -6 -8 -14 0 -8 6 -12 13 -9 17 6 11 -26 -7 -37 -13 -8 -5
-9 55 -1 5 0 6 4 3 8 -4 3 2 13 13 20 16 11 24 12 35 3 14 -12 39 -5 31 9 -3
4 5 13 16 20 18 11 20 11 15 -4 -5 -11 -3 -14 5 -9 7 5 9 2 6 -7 -4 -10 1 -15
12 -15 17 0 17 2 -1 25 -18 22 -56 41 -44 21 3 -4 -2 -11 -11 -14 -8 -3 -12
-10 -9 -16 11 -18 -11 -10 -30 10 -18 20 -18 20 6 18 20 -3 24 1 25 27 2 46 4
51 13 36 7 -10 13 -11 27 -2 15 8 16 11 4 12 -8 1 -19 1 -23 0 -5 -1 -7 4 -4
11 5 14 9 14 42 3 11 -4 16 -3 10 2 -17 13 -17 36 -1 30 17 -7 28 15 20 41 -5
14 -3 14 10 -2 9 -11 16 -15 16 -9 0 7 -4 15 -10 18 -5 3 -10 11 -10 16 0 5
11 2 25 -7 13 -9 30 -14 37 -11 8 3 6 6 -5 6 -10 1 -16 5 -13 9 2 4 0 14 -6
22 -8 12 -9 11 -4 -3 4 -12 2 -17 -6 -15 -6 2 -12 20 -13 39 0 27 4 35 18 36
15 2 16 -1 6 -13 -6 -8 -10 -16 -8 -18 2 -2 12 6 21 18 18 25 18 24 -42 28
-17 1 -29 6 -27 12 2 6 13 10 23 8 13 -2 15 0 6 6 -9 6 -6 12 12 21 15 9 23
20 19 30 -3 12 0 11 11 -4 16 -19 17 -19 14 5 -2 18 4 28 25 38 16 8 26 16 24
19 -3 2 -15 -1 -28 -7 -19 -11 -21 -10 -16 5 4 9 7 18 7 21 0 2 8 1 18 -2 13
-5 14 -4 3 4 -8 6 -20 8 -27 5 -7 -2 -17 4 -23 15 -8 16 -7 21 5 26 24 9 27 7
14 -9 -7 -9 -8 -15 -2 -15 5 0 12 7 16 15 3 9 12 12 22 8 12 -4 15 -3 10 6 -4
6 -13 11 -19 10 -24 -3 -37 1 -37 12 0 6 6 9 14 6 8 -3 22 1 33 8 10 8 13 15
8 15 -6 0 -16 -5 -21 -10 -8 -8 -15 -6 -25 6 -12 14 -10 19 14 40 16 13 24 24
20 24 -5 0 -14 -5 -21 -12 -6 -6 -15 -9 -19 -5 -3 4 2 14 13 22 10 8 14 15 8
15 -19 0 -35 -26 -27 -46 6 -17 5 -17 -10 -5 -10 8 -15 21 -12 32 3 9 2 20 -2
22 -4 3 -9 -8 -10 -23 -1 -17 4 -30 13 -34 16 -6 10 -26 -7 -26 -6 0 -7 4 -4
10 4 6 -1 7 -12 4 -10 -3 -14 -2 -8 3 6 4 11 24 12 43 0 19 1 38 2 42 1 4 11
4 24 2 12 -3 36 -7 52 -7 23 -2 29 -6 27 -20 -2 -9 2 -17 7 -17 5 0 8 8 6 18
-3 15 7 21 54 30 63 13 168 53 216 82 17 10 63 30 104 44 97 35 128 54 140 87
5 15 8 29 6 31 -1 1 -5 19 -8 38 -16 111 -80 255 -152 340 -25 30 -59 83 -76
118 -35 73 -65 95 -189 146 -64 27 -88 32 -103 25 -19 -11 -89 -84 -95 -100
-7 -19 40 -69 64 -69 14 0 38 -7 54 -15 18 -9 43 -13 69 -9 27 4 45 1 53 -8
43 -44 86 -152 82 -203 -2 -16 -5 -59 -7 -94 -4 -69 -16 -84 -45 -58 -9 8 -33
19 -53 25 -51 14 -174 7 -201 -10 -15 -10 -31 -12 -44 -8 -34 13 -174 9 -217
-6 -21 -8 -43 -11 -48 -8 -5 3 -9 0 -9 -6 0 -6 -4 -8 -10 -5 -5 3 -10 1 -10
-4 0 -16 -32 -8 -67 17 -18 12 -34 35 -38 54 -12 48 -11 53 3 50 8 -1 11 2 8
7 -4 5 -1 15 6 23 7 7 22 30 33 51 11 20 23 37 28 37 4 0 6 4 3 9 -4 5 -1 22
5 38 17 44 12 128 -10 171 -47 92 -117 132 -234 132 -157 0 -236 -77 -242
-235 -1 -38 1 -74 5 -80 4 -5 13 -27 20 -49 11 -35 24 -56 56 -90 17 -18 24
-45 13 -51 -5 -4 -7 -11 -4 -16 4 -5 1 -9 -5 -9 -6 0 -8 -5 -5 -10 4 -6 -4
-19 -17 -29 -18 -15 -26 -17 -37 -8 -12 10 -14 9 -9 -5 6 -14 -7 -17 -32 -8
-3 1 -8 2 -12 1 -5 0 -8 4 -8 10 0 5 -6 7 -12 3 -10 -5 -10 -4 -1 6 9 10 16
10 25 2 8 -7 19 -7 28 -2 8 5 18 6 24 3 5 -4 6 -1 1 7 -6 9 -4 11 5 5 9 -5 11
-4 6 3 -12 20 5 35 18 16 12 -15 13 -15 13 2 0 11 -5 25 -11 33 -9 11 -7 13
13 6 21 -6 22 -5 10 7 -10 12 -18 13 -31 4 -10 -6 -18 -14 -18 -18 0 -5 -5 -8
-11 -8 -5 0 -7 5 -4 10 3 6 1 10 -5 10 -7 0 -10 -6 -7 -14 3 -8 -1 -17 -9 -20
-12 -4 -14 -1 -9 14 6 18 3 17 -19 -5 -15 -15 -24 -30 -21 -35 8 -14 -18 -17
-55 -8 -33 9 -34 11 -16 24 11 7 17 16 15 19 -3 3 -15 -4 -27 -16 -12 -11 -27
-17 -32 -14 -14 8 -13 26 1 23 6 -2 14 4 16 12 4 12 3 12 -5 2 -5 -8 -13 -13
-18 -12 -4 1 -11 -4 -14 -12 -6 -15 -52 -18 -62 -3 -5 6 -8 6 -8 -1 0 -15 -38
-25 -46 -13 -3 5 -11 9 -17 9 -7 0 -6 -4 3 -10 21 -14 3 -12 -50 4 -63 19
-179 12 -231 -15 -23 -11 -43 -19 -44 -17 -2 2 -6 51 -9 109 -6 114 4 155 54
232 24 36 26 37 76 32 35 -3 57 0 70 10 10 8 32 15 47 15 29 0 66 33 67 58 0
19 -78 109 -100 115 -10 3 -54 -10 -97 -27z m592 -476 c4 -6 2 -9 -3 -8 -5 2
-21 -9 -36 -25 -22 -24 -28 -26 -45 -15 -21 13 -18 33 4 25 7 -3 25 3 41 13
16 10 30 19 31 19 1 1 5 -4 8 -9z m-465 -474 c7 -9 9 -16 5 -16 -4 0 -2 -7 5
-15 12 -14 9 -18 -7 -12 -5 1 -7 5 -5 10 2 7 -13 11 -30 8 -12 -2 -9 14 4 27
9 9 9 12 0 12 -7 0 -12 -5 -12 -11 0 -5 -4 -8 -10 -4 -5 3 -7 12 -4 20 7 16
31 7 54 -19z m-44 -28 c5 -16 8 -18 15 -7 6 10 8 7 6 -9 0 -12 -5 -22 -10 -22
-4 0 -5 -5 -2 -11 4 -6 -2 -5 -13 2 -16 10 -18 16 -10 26 8 10 6 18 -6 31 -9
10 -16 22 -16 27 0 14 29 -16 36 -37z m1300 -42 c0 -13 -4 -22 -7 -20 -18 10
-15 -28 2 -50 l20 -26 -20 0 c-12 0 -21 5 -21 11 0 5 5 7 12 3 7 -5 8 -3 4 5
-6 9 -12 8 -26 -6 -12 -12 -14 -20 -6 -25 11 -7 1 -12 -17 -9 -5 1 -5 -4 -2
-10 5 -8 10 -8 18 0 15 15 30 14 21 -1 -4 -7 -3 -8 5 -4 6 4 9 12 6 17 -4 5
-2 9 4 9 5 0 12 -4 16 -9 7 -12 -29 -33 -40 -23 -4 4 -5 -3 -1 -14 5 -16 0
-26 -21 -39 -24 -16 -26 -16 -14 -2 7 9 10 17 6 17 -4 0 -2 6 4 14 9 10 8 16
-4 26 -12 10 -13 16 -1 39 7 14 12 34 11 44 -2 9 1 15 5 12 5 -3 14 3 20 14 7
14 7 22 -1 27 -8 4 -7 9 2 15 22 14 27 11 25 -15z m-1119 -52 c-3 -3 -12 -4
-19 -1 -8 3 -5 6 6 6 11 1 17 -2 13 -5z m-37 -16 c0 -6 -3 -8 -7 -5 -3 4 -12
-1 -19 -11 -17 -22 -18 -38 -1 -24 10 8 19 5 38 -11 13 -12 20 -19 15 -14 -18
13 -29 7 -16 -8 9 -10 9 -15 1 -15 -6 0 -11 5 -11 11 0 5 -4 7 -10 4 -5 -3
-10 -1 -10 4 0 6 5 11 11 11 5 0 7 5 4 10 -5 8 -11 7 -21 -1 -7 -6 -12 -15 -9
-19 9 -14 -7 -41 -21 -36 -8 3 -11 0 -8 -8 7 -19 33 -15 40 6 4 14 9 16 18 9
7 -6 17 -7 21 -3 5 4 4 1 0 -7 -6 -11 -4 -13 8 -8 10 3 17 2 17 -3 0 -14 -24
-12 -38 2 -6 6 -15 8 -19 4 -4 -4 -1 -12 7 -17 12 -9 11 -10 -4 -5 -14 5 -17
3 -11 -11 4 -10 8 -24 8 -31 0 -7 6 -11 13 -8 9 3 11 -1 7 -11 -5 -13 -2 -13
23 2 l29 18 -30 -27 c-18 -16 -23 -25 -12 -22 9 3 25 9 35 12 9 3 6 -2 -8 -10
-14 -8 -19 -15 -12 -16 6 0 12 -7 12 -15 0 -14 -12 -20 -33 -16 -5 1 -7 -4 -4
-11 2 -7 11 -11 18 -9 8 2 23 3 34 3 10 -1 25 4 32 9 14 12 33 4 32 -14 0 -9
-2 -9 -6 1 -8 20 -22 14 -16 -8 3 -11 9 -18 13 -15 11 7 17 -14 15 -50 0 -18
-6 -29 -13 -28 -19 5 -14 -11 9 -26 19 -11 21 -11 16 3 -6 16 11 39 44 56 12
7 19 7 19 1 0 -5 -8 -11 -17 -13 -16 -3 -27 -48 -11 -48 4 0 8 5 8 10 0 6 5
10 11 10 8 0 8 -5 -1 -15 -8 -10 -9 -15 -2 -15 6 0 23 17 37 37 14 21 25 32
25 26 0 -7 -4 -15 -10 -18 -5 -3 -10 -11 -10 -16 0 -6 4 -8 8 -5 4 2 8 -4 8
-14 0 -10 -4 -17 -7 -14 -4 2 -10 0 -14 -6 -3 -5 -1 -10 4 -10 6 0 11 -8 11
-17 -1 -17 -1 -17 -14 0 -22 29 -25 24 -29 -55 0 -20 -5 -34 -9 -32 -5 3 -6
10 -3 15 6 9 -10 14 -30 9 -25 -6 -83 -5 -79 1 2 4 -3 12 -11 19 -15 13 -12
30 6 30 6 0 8 -4 4 -9 -6 -11 23 -27 45 -25 8 1 21 2 28 3 7 0 10 6 6 12 -4 8
-9 7 -15 -2 -7 -11 -9 -11 -9 -1 0 7 -4 11 -9 7 -5 -3 -13 0 -17 6 -5 8 -3 9
7 4 12 -7 12 -6 1 7 -9 11 -10 18 -2 23 5 3 10 -1 10 -9 0 -8 5 -18 11 -21 16
-11 6 28 -11 42 -8 6 -18 9 -22 7 -4 -3 -16 0 -25 6 -16 9 -15 10 5 5 13 -4
22 -2 22 5 0 6 -5 8 -12 4 -7 -5 -8 -3 -3 5 6 10 3 11 -14 2 -17 -10 -20 -9
-15 4 4 9 3 15 -2 14 -22 -4 -35 2 -28 12 5 8 9 8 14 -1 5 -9 9 -9 14 -1 4 6
2 11 -4 11 -6 0 -9 4 -5 9 3 5 0 13 -6 17 -8 5 -10 2 -5 -7 4 -8 -2 -3 -14 11
-12 14 -19 19 -15 13 4 -9 1 -11 -10 -6 -12 4 -13 8 -5 13 8 5 6 9 -5 14 -15
5 -15 9 -4 23 12 15 12 16 -4 10 -15 -6 -16 -4 -7 13 6 11 16 20 23 20 8 0 8
3 -2 9 -7 5 -10 15 -7 22 5 9 2 8 -6 -1 -16 -19 -44 -19 -40 -1 1 7 -2 10 -9
5 -8 -4 -9 -3 -5 4 5 8 1 10 -11 6 -15 -5 -16 -4 -3 5 13 9 13 11 1 11 -11 0
-10 4 5 16 10 8 13 12 5 8 -9 -5 -12 -3 -7 5 4 6 12 9 17 6 5 -4 9 -1 9 4 0 6
-5 11 -11 11 -5 0 -8 4 -4 9 3 5 1 12 -5 16 -6 4 -7 11 -4 17 5 7 2 8 -6 3 -9
-6 -11 -4 -5 5 5 9 4 11 -4 6 -6 -4 -9 -12 -6 -17 9 -13 -9 -11 -22 2 -6 6 -9
18 -6 26 4 11 8 11 13 3 5 -9 19 -4 49 15 22 15 38 31 36 35 -3 5 1 11 7 13
21 9 28 8 28 -5z m46 -23 c18 -15 18 -15 0 -8 -14 5 -17 3 -11 -7 5 -9 4 -11
-4 -6 -6 4 -8 12 -5 18 5 8 1 9 -10 5 -10 -4 -15 -3 -11 3 8 14 18 13 41 -5z
m28 -33 c3 -5 -1 -9 -9 -9 -8 0 -12 4 -9 9 3 4 7 8 9 8 2 0 6 -4 9 -8z m-17
-54 c-3 -7 -5 -2 -5 12 0 14 2 19 5 13 2 -7 2 -19 0 -25z m-182 12 c4 -6 14
-9 23 -8 18 3 24 -20 10 -39 -17 -22 -19 -63 -4 -63 7 0 19 -6 25 -14 7 -8 21
-13 32 -11 18 4 18 2 5 -16 -14 -20 -11 -59 4 -59 5 0 7 -11 6 -25 -4 -31 14
-48 34 -33 13 8 12 9 -2 5 -18 -6 -30 1 -22 14 3 5 14 4 25 -2 15 -7 17 -14
10 -23 -13 -16 54 -80 76 -71 13 4 13 3 5 -8 -7 -8 -9 -17 -5 -20 8 -9 -7 -8
-32 2 -11 5 -21 13 -21 20 -1 6 -2 16 -3 22 0 5 -6 7 -13 3 -7 -4 -8 -3 -4 4
3 6 -3 16 -16 23 -12 7 -36 25 -53 40 -24 23 -27 29 -12 29 11 0 15 -4 11 -12
-5 -7 -3 -8 6 -3 11 7 9 12 -8 23 -12 8 -22 20 -22 26 0 6 5 4 10 -4 6 -9 10
-10 10 -3 0 22 -19 24 -30 4 -10 -20 -40 -19 -40 1 0 6 7 8 15 5 22 -9 29 12
10 33 -9 10 -14 23 -11 28 7 12 -18 35 -27 25 -13 -12 -7 13 7 32 18 25 10 51
-10 34 -9 -8 -14 -8 -14 -1 0 18 18 23 42 12 20 -9 21 -9 5 2 -44 31 -51 37
-40 38 6 0 15 -5 18 -10z m245 -23 c0 -2 -8 -11 -18 -20 -15 -14 -19 -15 -19
-2 0 8 4 12 8 9 4 -2 10 0 14 6 6 10 15 14 15 7z m-64 -32 c-3 -9 -10 -14 -15
-11 -5 4 -11 0 -14 -6 -3 -7 -4 -3 -4 9 1 17 4 19 14 11 10 -8 13 -6 13 7 0
10 3 16 6 12 4 -3 4 -13 0 -22z m104 10 c0 -2 -9 -3 -19 -2 -11 0 -18 5 -15 9
4 6 34 0 34 -7z m-150 -15 c0 -5 -2 -10 -4 -10 -3 0 -8 5 -11 10 -3 6 -1 10 4
10 6 0 11 -4 11 -10z m950 0 c0 -5 -7 -7 -15 -4 -8 4 -15 8 -15 10 0 2 7 4 15
4 8 0 15 -4 15 -10z m-886 -25 c-4 -8 -8 -15 -10 -15 -2 0 -4 7 -4 15 0 8 4
15 10 15 5 0 7 -7 4 -15z m76 10 c0 -2 -6 -8 -13 -14 -10 -8 -14 -7 -14 2 0 8
6 14 14 14 7 0 13 -1 13 -2z m926 -12 c-5 -15 -4 -15 9 1 11 15 15 16 16 5 0
-8 2 -23 4 -34 3 -12 -7 -33 -21 -50 -14 -17 -23 -22 -20 -13 2 9 -2 22 -9 28
-8 7 -12 17 -8 24 4 6 8 13 9 16 2 13 17 40 21 40 3 0 2 -8 -1 -17z m-963 -18
c4 -8 3 -16 -1 -19 -4 -3 -9 4 -9 15 -2 23 3 25 10 4z m48 -12 c13 -16 12 -17
-3 -4 -10 7 -18 15 -18 17 0 8 8 3 21 -13z m-77 -7 c-6 -15 -34 -31 -34 -19 0
5 30 32 37 33 1 0 0 -6 -3 -14z m834 -11 c-3 -3 -9 2 -12 12 -6 14 -5 15 5 6
7 -7 10 -15 7 -18z m-23 -6 c-4 -5 -14 -8 -23 -8 -15 1 -15 2 1 6 9 2 14 9 11
15 -4 7 -2 8 5 4 6 -4 9 -12 6 -17z m-780 -9 c4 -6 11 -8 16 -5 5 4 9 1 9 -4
0 -15 -11 -13 -34 4 -11 8 -15 15 -9 15 7 0 15 -5 18 -10z m-35 -10 c0 -5 -8
-10 -17 -10 -15 0 -16 2 -3 10 19 12 20 12 20 0z m814 -35 c-4 -8 -12 -15 -20
-15 -8 0 -14 -5 -14 -12 0 -6 -3 -8 -7 -4 -4 4 3 16 17 28 14 11 18 18 9 15
-9 -3 -16 1 -16 8 0 10 5 11 18 4 11 -5 16 -16 13 -24z m-677 -7 c0 -13 -1
-18 -4 -11 -2 7 -12 9 -21 6 -13 -4 -12 -2 3 10 11 9 20 17 20 17 1 0 1 -10 2
-22z m873 1 c0 -5 -4 -9 -9 -9 -5 0 -17 -3 -27 -7 -13 -5 -15 -3 -9 8 7 11 6
12 -7 2 -8 -7 -19 -9 -23 -5 -5 4 -5 1 -1 -6 4 -7 11 -10 15 -8 4 3 13 0 21
-6 12 -8 12 -9 -2 -4 -12 3 -24 -3 -34 -20 -10 -14 -23 -23 -30 -20 -8 3 -14
1 -14 -4 0 -6 8 -10 18 -11 11 0 12 -2 4 -6 -10 -4 -10 -8 -1 -19 7 -8 9 -17
5 -21 -3 -4 -13 2 -21 13 -9 10 -15 15 -14 9 1 -5 0 -14 -1 -20 -1 -5 -3 -16
-4 -22 -1 -17 -19 -18 -25 -2 -2 6 1 9 6 6 11 -7 10 29 -1 40 -4 5 -7 4 -6 -2
4 -19 -13 -56 -23 -52 -17 5 -16 35 1 33 9 0 17 6 17 14 0 8 9 15 20 15 19 0
21 3 13 35 -1 8 3 14 10 15 7 0 20 14 31 30 14 25 25 31 55 32 20 0 36 -3 36
-8z m-932 -8 c11 -7 10 -9 -3 -14 -9 -4 -14 -3 -10 2 3 5 -1 12 -7 14 -7 3 -8
6 -3 6 6 0 16 -3 23 -8z m22 -32 c0 -5 -4 -8 -9 -5 -5 3 -12 -1 -15 -10 -4 -9
-9 -14 -13 -11 -7 8 15 37 28 37 5 0 9 -5 9 -11z m55 -7 c-3 -3 -11 0 -18 7
-9 10 -8 11 6 5 10 -3 15 -9 12 -12z m-20 -31 c-3 -6 -14 -10 -23 -10 -15 1
-15 2 1 6 9 2 17 9 17 15 0 6 3 9 6 5 3 -3 3 -10 -1 -16z m-211 -27 c9 -3 13
-10 10 -15 -3 -5 2 -12 10 -15 16 -6 12 -24 -5 -24 -6 0 -8 4 -5 9 3 4 -6 13
-20 20 -14 6 -22 16 -19 21 7 12 8 12 29 4z m920 -88 c-7 -19 -25 -22 -21 -3
2 12 19 28 24 23 2 -2 1 -11 -3 -20z m-819 -6 c3 -6 -1 -7 -9 -4 -18 7 -21 14
-7 14 6 0 13 -4 16 -10z"/>
<path d="M1016 1748 c3 -4 11 -5 19 -1 21 7 19 12 -4 10 -11 0 -18 -5 -15 -9z"/>
<path d="M1835 1080 c-3 -5 -1 -10 4 -10 6 0 11 5 11 10 0 6 -2 10 -4 10 -3 0
-8 -4 -11 -10z"/>
<path d="M669 1133 c-1 -4 -1 -12 0 -17 1 -5 -6 -6 -15 -2 -13 5 -14 4 -6 -7
7 -8 9 -16 6 -20 -3 -3 2 -4 13 -3 11 2 18 12 19 25 1 20 -15 42 -17 24z"/>
<path d="M668 1025 c-15 -20 -16 -25 -3 -35 8 -7 12 -17 9 -22 -4 -6 3 -5 14
1 21 11 22 34 5 65 -6 11 -11 10 -25 -9z m25 -9 c4 -11 1 -13 -11 -9 -15 6
-16 5 -2 -13 14 -18 14 -18 -3 -5 -13 10 -15 17 -6 27 14 17 16 17 22 0z"/>
<path d="M721 931 c-14 -9 -5 -18 17 -17 14 1 18 19 5 23 -4 2 -14 -1 -22 -6z"/>
<path d="M751 857 c29 -20 45 -39 43 -50 -3 -24 11 -30 29 -12 12 11 17 12 20
2 2 -6 4 2 3 18 -1 28 -11 44 -28 45 -4 0 -5 -7 -2 -15 4 -8 11 -12 17 -8 6 3
7 1 3 -5 -4 -6 -13 -9 -21 -6 -8 4 -12 11 -8 17 4 6 0 8 -10 4 -9 -3 -19 -1
-23 6 -4 7 -4 9 1 5 9 -9 45 9 45 23 0 6 -7 6 -19 -1 -14 -7 -21 -6 -24 3 -3
7 -6 5 -6 -5 -1 -10 -6 -18 -12 -18 -5 0 -7 5 -3 12 4 6 3 8 -4 4 -6 -3 -13
-2 -17 4 -3 5 -12 10 -18 10 -7 0 9 -15 34 -33z m64 -46 c3 -5 2 -12 -3 -15
-5 -3 -9 1 -9 9 0 17 3 19 12 6z"/>
<path d="M875 780 c-3 -5 -1 -10 4 -10 6 0 11 5 11 10 0 6 -2 10 -4 10 -3 0
-8 -4 -11 -10z"/>
<path d="M938 754 c-12 -13 -20 -14 -36 -5 -37 20 -40 -17 -6 -64 21 -27 21
-28 19 -4 -1 13 2 27 7 30 5 3 2 9 -7 12 -9 4 -14 3 -11 -1 3 -5 -1 -9 -9 -9
-11 0 -12 4 -4 13 6 7 16 11 23 8 13 -5 54 21 45 30 -3 3 -12 -2 -21 -10z"/>
<path d="M643 953 c4 -6 2 -13 -4 -15 -7 -2 -5 -9 5 -17 14 -12 16 -11 10 5
-5 18 -5 18 9 1 14 -17 15 -17 21 0 4 10 4 14 0 10 -4 -4 -16 1 -27 10 -11 10
-17 13 -14 6z"/>
<path d="M1797 971 c2 -2 -2 -10 -7 -16 -7 -9 -6 -16 3 -23 10 -8 16 -6 26 11
8 12 10 19 6 15 -5 -4 -13 -2 -19 5 -6 7 -10 10 -9 8z"/>
<path d="M1721 827 c-13 -21 -12 -21 5 -5 10 10 16 20 13 22 -3 3 -11 -5 -18
-17z"/>
<path d="M990 1946 c0 -2 7 -7 16 -10 8 -3 12 -2 9 4 -6 10 -25 14 -25 6z"/>
<path d="M1535 1941 c-3 -5 -2 -12 3 -15 5 -3 9 1 9 9 0 17 -3 19 -12 6z"/>
<path d="M785 1920 c-3 -6 1 -7 9 -4 18 7 21 14 7 14 -6 0 -13 -4 -16 -10z"/>
<path d="M1035 1911 c-6 -11 13 -26 22 -17 4 3 1 6 -6 6 -7 0 -9 5 -6 10 3 6
4 10 1 10 -3 0 -7 -4 -11 -9z"/>
<path d="M1005 1899 c-4 -6 -14 -8 -24 -4 -13 5 -14 4 -3 -6 10 -11 15 -10 29
4 10 9 14 17 11 17 -4 0 -10 -5 -13 -11z"/>
<path d="M1553 1895 c0 -8 4 -12 9 -9 5 3 6 10 3 15 -9 13 -12 11 -12 -6z"/>
<path d="M1610 1900 c0 -5 5 -10 11 -10 5 0 7 5 4 10 -3 6 -8 10 -11 10 -2 0
-4 -4 -4 -10z"/>
<path d="M935 1890 c-4 -6 -12 -7 -18 -4 -7 4 -8 3 -4 -1 13 -15 34 -14 34 1
0 17 -4 18 -12 4z"/>
<path d="M1015 1880 c-3 -5 -3 -10 2 -10 10 0 -19 -20 -30 -20 -5 0 -5 5 -1
12 4 7 3 8 -4 4 -16 -10 -15 -14 9 -27 13 -6 19 -7 15 -1 -3 6 -1 12 6 14 6 2
12 12 14 21 3 19 -2 22 -11 7z"/>
<path d="M730 1860 c0 -5 5 -10 11 -10 5 0 7 5 4 10 -3 6 -8 10 -11 10 -2 0
-4 -4 -4 -10z"/>
<path d="M800 1860 c-9 -6 -10 -10 -3 -10 6 0 15 5 18 10 8 12 4 12 -15 0z"/>
<path d="M836 1861 c-3 -5 2 -15 12 -22 15 -12 16 -12 5 2 -7 9 -10 19 -6 22
3 4 4 7 0 7 -3 0 -8 -4 -11 -9z"/>
<path d="M1510 1863 c0 -5 8 -18 18 -29 13 -17 22 -20 37 -13 19 9 19 9 -2 5
-20 -3 -39 16 -35 37 1 4 -2 7 -8 7 -5 0 -10 -3 -10 -7z"/>
<path d="M940 1851 c0 -10 19 -25 25 -20 1 2 -3 10 -11 17 -8 7 -14 8 -14 3z"/>
<path d="M1035 1850 c-3 -5 -1 -10 4 -10 6 0 11 5 11 10 0 6 -2 10 -4 10 -3 0
-8 -4 -11 -10z"/>
<path d="M1062 1840 c-7 -12 -8 -20 -2 -20 5 0 10 5 10 11 0 5 4 7 10 4 6 -3
7 1 4 9 -8 20 -7 20 -22 -4z"/>
<path d="M876 1835 c-9 -26 -7 -32 5 -12 6 10 9 21 6 23 -2 3 -7 -2 -11 -11z"/>
<path d="M1470 1831 c-13 -11 -28 -17 -32 -15 -4 3 -5 -2 -1 -11 5 -13 7 -14
14 -3 6 9 9 9 9 1 0 -6 8 -11 18 -11 9 0 26 -3 37 -7 17 -6 17 -5 -3 9 -12 10
-26 15 -31 11 -5 -3 -12 -1 -15 4 -4 5 3 12 14 16 11 3 20 11 20 16 0 12 -1
12 -30 -10z"/>
<path d="M1630 1843 c0 -6 8 -17 18 -24 16 -13 16 -13 2 6 -8 11 -16 22 -17
24 -2 2 -3 0 -3 -6z"/>
<path d="M785 1820 c-3 -6 1 -7 9 -4 18 7 21 14 7 14 -6 0 -13 -4 -16 -10z"/>
<path d="M895 1819 c-6 -8 -4 -10 5 -4 10 6 12 4 6 -11 -6 -15 -5 -17 5 -6 9
9 10 15 2 23 -8 8 -13 7 -18 -2z"/>
<path d="M930 1822 c0 -7 4 -12 9 -12 13 0 7 -40 -8 -49 -9 -6 -5 -8 13 -8 22
0 25 3 20 20 -4 13 -2 17 5 12 13 -8 41 12 41 29 0 6 -5 3 -11 -6 -5 -10 -15
-18 -21 -18 -7 0 -6 6 2 15 7 9 10 18 7 22 -4 3 -9 -2 -13 -11 -6 -16 -8 -16
-25 0 -11 10 -19 12 -19 6z"/>
<path d="M1510 1821 c0 -6 4 -13 10 -16 6 -3 7 1 4 9 -7 18 -14 21 -14 7z"/>
<path d="M1673 1815 c0 -8 4 -12 9 -9 5 3 6 10 3 15 -9 13 -12 11 -12 -6z"/>
<path d="M1773 1823 c4 -3 1 -13 -6 -22 -11 -14 -10 -14 5 -2 16 12 16 31 1
31 -4 0 -3 -3 0 -7z"/>
<path d="M806 1807 c-16 -12 -16 -14 -3 -14 9 0 18 6 21 14 3 7 4 13 3 13 -2
0 -11 -6 -21 -13z"/>
<path d="M842 1800 c-18 -29 -15 -38 4 -12 9 13 14 25 12 27 -2 2 -9 -5 -16
-15z"/>
<path d="M1566 1798 c3 -5 10 -6 15 -3 13 9 11 12 -6 12 -8 0 -12 -4 -9 -9z"/>
<path d="M1595 1790 c-28 -19 -31 -19 -42 -3 -7 9 -13 13 -13 7 0 -5 10 -21
23 -36 16 -21 26 -25 37 -18 8 5 11 12 7 17 -5 4 -12 1 -16 -6 -7 -10 -10 -10
-16 -1 -5 7 -2 16 6 21 22 12 55 38 49 39 -3 0 -18 -9 -35 -20z"/>
<path d="M655 1780 c-3 -5 -1 -10 4 -10 6 0 11 5 11 10 0 6 -2 10 -4 10 -3 0
-8 -4 -11 -10z"/>
<path d="M720 1780 c-9 -6 -10 -10 -3 -10 6 0 15 5 18 10 8 12 4 12 -15 0z"/>
<path d="M753 1775 c0 -8 4 -12 9 -9 5 3 6 10 3 15 -9 13 -12 11 -12 -6z"/>
<path d="M1450 1766 c0 -8 4 -18 10 -21 6 -4 7 1 3 12 -5 14 -3 16 7 6 7 -6
18 -9 24 -7 6 2 12 -5 13 -17 2 -18 0 -19 -15 -7 -15 11 -16 11 -4 -4 13 -16
23 -17 54 -4 14 6 15 11 6 26 -7 10 -19 18 -27 18 -9 0 -28 3 -43 6 -21 5 -28
3 -28 -8z m81 -38 c-11 -10 -13 -10 -7 0 4 6 2 12 -4 12 -6 0 -8 5 -4 11 4 8
9 8 17 0 8 -8 7 -14 -2 -23z"/>
<path d="M1083 1753 c4 -3 1 -13 -6 -22 -11 -14 -10 -14 5 -2 16 12 16 31 1
31 -4 0 -3 -3 0 -7z"/>
<path d="M376 1378 c3 -5 10 -6 15 -3 13 9 11 12 -6 12 -8 0 -12 -4 -9 -9z"/>
<path d="M485 1362 c-5 -4 -11 -12 -12 -19 -3 -13 22 -12 34 2 5 4 2 5 -6 0
-11 -6 -13 -4 -8 8 7 19 6 20 -8 9z"/>
<path d="M433 1347 c0 -8 6 -14 14 -14 9 0 10 4 2 14 -6 7 -12 13 -14 13 -1 0
-2 -6 -2 -13z"/>
<path d="M2050 1340 c0 -5 5 -10 11 -10 5 0 7 5 4 10 -3 6 -8 10 -11 10 -2 0
-4 -4 -4 -10z"/>
<path d="M690 1321 c0 -7 -4 -10 -9 -7 -5 3 -14 -1 -21 -9 -9 -11 -8 -14 9
-12 20 1 37 24 26 35 -3 3 -5 0 -5 -7z"/>
<path d="M2000 1326 c0 -2 8 -10 18 -17 15 -13 16 -12 3 4 -13 16 -21 21 -21
13z"/>
<path d="M482 1307 c10 -8 14 -18 10 -22 -4 -5 -1 -5 6 -1 17 10 15 14 -10 26
-21 10 -21 10 -6 -3z"/>
<path d="M1950 1300 c0 -5 5 -10 10 -10 6 0 10 5 10 10 0 6 -4 10 -10 10 -5 0
-10 -4 -10 -10z"/>
<path d="M2050 1300 c0 -5 5 -10 11 -10 5 0 7 5 4 10 -3 6 -8 10 -11 10 -2 0
-4 -4 -4 -10z"/>
<path d="M2094 1298 c-4 -7 -4 -10 1 -6 4 4 15 2 24 -5 14 -11 14 -10 2 6 -16
20 -18 21 -27 5z"/>
<path d="M517 1285 c-4 -8 -2 -17 2 -19 11 -7 11 -56 0 -56 -5 0 -9 -5 -9 -11
0 -8 5 -7 15 1 9 7 19 10 22 6 4 -4 1 -11 -7 -16 -9 -6 -10 -10 -3 -10 6 0 18
7 26 15 13 13 16 13 21 -2 4 -9 9 -13 13 -9 4 3 18 -4 31 -16 14 -13 22 -18
18 -11 -4 7 4 19 18 29 20 12 23 20 16 33 -6 12 -5 22 2 29 12 12 -9 12 -29
-1 -7 -5 -19 -5 -25 -1 -10 6 -10 5 -1 -7 9 -11 8 -18 -2 -32 -7 -10 -15 -13
-17 -7 -2 6 -14 11 -28 12 -32 2 -50 16 -44 33 3 7 1 16 -5 19 -6 4 -8 13 -4
21 3 8 3 15 0 15 -3 0 -7 -7 -10 -15z m150 -41 c-3 -4 -1 -16 5 -28 6 -11 7
-18 3 -14 -5 5 -15 -1 -22 -12 -18 -26 -37 -16 -23 11 6 11 16 16 22 13 7 -5
9 -2 5 8 -5 15 0 28 11 28 3 0 2 -3 -1 -6z"/>
<path d="M636 1193 c-6 -14 -5 -15 5 -6 7 7 10 15 7 18 -3 3 -9 -2 -12 -12z"/>
<path d="M410 1281 c0 -6 4 -12 8 -15 5 -3 9 1 9 9 0 8 -4 15 -9 15 -4 0 -8
-4 -8 -9z"/>
<path d="M1910 1280 c0 -5 7 -7 15 -4 8 4 15 8 15 10 0 2 -7 4 -15 4 -8 0 -15
-4 -15 -10z"/>
<path d="M1996 1281 c-3 -4 6 -7 19 -7 14 0 22 2 19 5 -8 8 -34 10 -38 2z"/>
<path d="M477 1257 c4 -7 0 -8 -13 -3 -15 6 -16 5 -7 -5 10 -10 15 -10 27 0
12 10 15 9 13 -8 -1 -15 -6 -20 -17 -16 -11 5 -12 3 -3 -6 15 -15 31 -4 29 22
-1 13 -8 23 -19 25 -10 1 -14 -2 -10 -9z"/>
<path d="M1955 1250 c-8 -13 3 -30 18 -30 7 0 6 4 -3 10 -13 9 -13 11 0 20 9
6 10 10 3 10 -6 0 -15 -4 -18 -10z"/>
<path d="M2014 1246 c1 -8 5 -18 8 -22 4 -3 5 1 4 10 -1 8 -5 18 -8 22 -4 3
-5 -1 -4 -10z"/>
<path d="M390 1240 c0 -5 5 -10 11 -10 5 0 7 5 4 10 -3 6 -8 10 -11 10 -2 0
-4 -4 -4 -10z"/>
<path d="M430 1221 c0 -6 4 -13 10 -16 6 -3 7 1 4 9 -7 18 -14 21 -14 7z"/>
<path d="M350 1199 c0 -5 5 -7 10 -4 6 3 10 8 10 11 0 2 -4 4 -10 4 -5 0 -10
-5 -10 -11z"/>
<path d="M390 1201 c0 -6 4 -12 8 -15 5 -3 9 1 9 9 0 8 -4 15 -9 15 -4 0 -8
-4 -8 -9z"/>
<path d="M479 1191 c13 -12 20 -21 15 -21 -4 0 -3 -5 3 -11 8 -8 16 -8 30 0
16 11 15 11 -6 5 -14 -4 -21 -2 -17 4 3 5 -7 17 -22 26 l-27 17 24 -20z"/>
<path d="M1956 1195 c-9 -26 -7 -32 5 -12 6 10 9 21 6 23 -2 3 -7 -2 -11 -11z"/>
<path d="M1809 1195 c-1 -3 -2 -10 -3 -16 0 -6 -9 -16 -19 -24 -17 -12 -17
-13 0 -19 10 -4 14 -4 10 0 -4 4 -1 14 5 22 12 14 20 42 12 42 -2 0 -5 -2 -5
-5z"/>
<path d="M440 1175 c-7 -9 -11 -17 -9 -20 3 -2 10 5 17 15 14 24 10 26 -8 5z"/>
<path d="M1969 1169 c-6 -13 -7 -19 -1 -15 6 3 12 2 14 -3 1 -5 12 3 22 17
l20 27 -24 -20 c-20 -17 -23 -18 -17 -2 9 24 0 21 -14 -4z"/>
<path d="M2097 1155 c-4 -8 -3 -16 1 -19 4 -3 9 4 9 15 2 23 -3 25 -10 4z"/>
<path d="M390 1146 c0 -2 7 -7 16 -10 8 -3 12 -2 9 4 -6 10 -25 14 -25 6z"/>
<path d="M473 1130 c-1 -11 2 -20 5 -20 4 0 8 9 9 20 1 11 -2 20 -5 20 -4 0
-8 -9 -9 -20z"/>
<path d="M516 1134 c-11 -8 -16 -14 -10 -14 13 0 39 18 34 24 -3 2 -14 -2 -24
-10z"/>
<path d="M1946 1125 c-11 -8 -15 -15 -9 -15 6 0 16 7 23 15 16 19 11 19 -14 0z"/>
<path d="M1988 1116 c4 -6 7 -14 7 -18 0 -19 11 -14 11 6 0 12 -6 23 -13 23
-6 0 -9 -5 -5 -11z"/>
<path d="M1780 1101 c-7 -15 -17 -18 -41 -14 l-30 4 20 -20 c12 -12 22 -25 22
-31 1 -5 2 -14 3 -19 0 -5 4 -13 8 -17 4 -4 2 -14 -5 -23 -11 -14 -10 -14 5
-2 10 7 15 17 12 22 -3 5 0 9 7 9 8 0 8 4 -1 15 -10 12 -10 18 0 30 7 9 10 18
7 22 -4 3 -2 14 4 24 5 11 7 19 5 19 -3 0 -10 -9 -16 -19z m-5 -41 c-3 -5 -12
-10 -18 -10 -7 0 -6 4 3 10 19 12 23 12 15 0z"/>
<path d="M496 1102 c-3 -5 4 -16 15 -25 10 -9 19 -12 19 -7 0 6 -7 13 -15 16
-8 4 -12 10 -9 15 3 5 3 9 0 9 -3 0 -7 -4 -10 -8z"/>
<path d="M525 1100 c3 -5 8 -10 11 -10 2 0 4 5 4 10 0 6 -5 10 -11 10 -5 0 -7
-4 -4 -10z"/>
<path d="M1913 1085 c0 -14 3 -27 7 -30 4 -3 8 7 8 20 0 14 -4 27 -8 30 -4 3
-7 -7 -7 -20z"/>
<path d="M2027 1099 c7 -7 15 -10 18 -7 3 3 -2 9 -12 12 -14 6 -15 5 -6 -5z"/>
<path d="M444 1084 c-18 -14 -18 -15 4 -4 12 6 22 13 22 15 0 8 -5 6 -26 -11z"/>
<path d="M1948 1088 c-7 -17 15 -19 29 -3 4 4 3 5 -4 2 -6 -4 -13 -2 -15 5 -3
8 -6 6 -10 -4z"/>
<path d="M475 1069 c-4 -6 -5 -12 -2 -15 2 -3 7 2 10 11 7 17 1 20 -8 4z"/>
<path d="M1865 1050 c-8 -13 3 -30 20 -30 20 0 30 21 14 31 -18 11 -26 11 -34
-1z m30 -10 c3 -5 -1 -10 -9 -10 -9 0 -16 5 -16 10 0 6 4 10 9 10 6 0 13 -4
16 -10z"/>
<path d="M1939 1048 c-1 -7 -1 -16 0 -20 0 -5 -6 -8 -14 -8 -8 0 -15 -5 -15
-10 0 -20 36 8 37 29 2 22 -6 30 -8 9z"/>
<path d="M1971 1044 c0 -11 3 -14 6 -6 3 7 2 16 -1 19 -3 4 -6 -2 -5 -13z"/>
<path d="M396 1038 c3 -5 10 -6 15 -3 13 9 11 12 -6 12 -8 0 -12 -4 -9 -9z"/>
<path d="M430 1043 c0 -6 8 -17 18 -24 16 -13 16 -13 2 6 -8 11 -16 22 -17 24
-2 2 -3 0 -3 -6z"/>
<path d="M2053 1025 c0 -8 4 -12 9 -9 5 3 6 10 3 15 -9 13 -12 11 -12 -6z"/>
<path d="M496 1022 c-2 -4 -1 -14 3 -21 6 -9 11 -10 15 -2 4 6 2 11 -4 11 -6
0 -8 5 -5 10 3 6 4 10 1 10 -3 0 -7 -4 -10 -8z"/>
<path d="M1985 1020 c-3 -6 1 -7 9 -4 18 7 21 14 7 14 -6 0 -13 -4 -16 -10z"/>
<path d="M1715 1011 c-3 -5 -2 -12 3 -15 5 -3 9 1 9 9 0 17 -3 19 -12 6z"/>
<path d="M1946 1005 c-11 -8 -15 -15 -9 -15 6 0 16 7 23 15 16 19 11 19 -14 0z"/>
<path d="M480 991 c0 -6 4 -13 10 -16 6 -3 7 1 4 9 -7 18 -14 21 -14 7z"/>
<path d="M395 981 c-3 -5 -2 -12 3 -15 5 -3 9 1 9 9 0 17 -3 19 -12 6z"/>
<path d="M1890 976 c-6 -9 -10 -21 -7 -28 4 -9 6 -7 6 4 1 9 7 18 14 21 6 2 9
7 6 11 -3 4 -12 0 -19 -8z"/>
<path d="M1961 981 c-8 -5 -9 -11 -3 -15 5 -3 12 1 16 9 6 17 6 18 -13 6z"/>
<path d="M1995 982 c3 -3 -3 -15 -12 -26 -13 -15 -10 -14 10 3 32 29 31 28 12
28 -8 0 -13 -3 -10 -5z"/>
<path d="M430 961 c0 -6 4 -13 10 -16 6 -3 7 1 4 9 -7 18 -14 21 -14 7z"/>
<path d="M500 960 c-18 -12 -2 -12 25 0 13 6 15 9 5 9 -8 0 -22 -4 -30 -9z"/>
<path d="M1910 951 c0 -6 5 -13 12 -17 7 -5 8 -3 3 6 -6 10 -4 12 9 7 10 -4
15 -3 11 3 -8 13 -35 13 -35 1z"/>
<path d="M537 933 c6 -25 18 -30 29 -10 4 6 4 9 -1 5 -4 -4 -14 0 -21 10 -12
15 -12 15 -7 -5z"/>
<path d="M1705 930 c-3 -5 0 -12 6 -16 8 -5 9 -3 4 7 -5 8 -4 10 0 6 5 -4 10
-14 11 -22 2 -11 -2 -12 -17 -2 -10 6 -19 15 -19 19 0 5 -5 8 -11 8 -8 0 -9
-4 0 -13 6 -8 7 -18 3 -22 -4 -5 -1 -5 5 -1 9 5 11 2 7 -8 -3 -9 -10 -14 -14
-11 -5 3 -7 -3 -6 -12 2 -10 6 -17 9 -15 4 1 12 2 17 2 6 0 9 3 9 8 -3 19 2
33 10 27 11 -6 24 12 26 35 1 17 -31 25 -40 10z"/>
<path d="M430 921 c0 -6 4 -13 10 -16 6 -3 7 1 4 9 -7 18 -14 21 -14 7z"/>
<path d="M515 921 c-3 -5 -2 -12 3 -15 5 -3 9 1 9 9 0 17 -3 19 -12 6z"/>
<path d="M1890 926 c0 -2 7 -7 16 -10 8 -3 12 -2 9 4 -6 10 -25 14 -25 6z"/>
<path d="M1956 918 c3 -5 10 -6 15 -3 13 9 11 12 -6 12 -8 0 -12 -4 -9 -9z"/>
<path d="M489 883 c-13 -16 -12 -17 4 -4 9 7 17 15 17 17 0 8 -8 3 -21 -13z"/>
<path d="M1861 874 c0 -11 3 -14 6 -6 3 7 2 16 -1 19 -3 4 -6 -2 -5 -13z"/>
<path d="M1885 880 c-3 -6 1 -7 9 -4 18 7 21 14 7 14 -6 0 -13 -4 -16 -10z"/>
<path d="M1924 882 c4 -3 14 -7 22 -8 9 -1 13 0 10 4 -4 3 -14 7 -22 8 -9 1
-13 0 -10 -4z"/>
<path d="M390 865 c0 -7 30 -13 34 -7 3 4 -4 9 -15 9 -10 1 -19 0 -19 -2z"/>
<path d="M560 860 c-23 -7 -23 -8 -3 -9 12 -1 25 4 28 9 3 6 5 10 3 9 -2 -1
-14 -5 -28 -9z"/>
<path d="M1829 849 c-8 -16 -8 -24 1 -33 8 -8 9 -6 4 8 -4 12 -4 17 2 13 6 -3
11 3 11 14 2 25 -4 24 -18 -2z"/>
<path d="M1890 846 c0 -8 4 -17 9 -20 5 -4 7 3 4 14 -6 23 -13 26 -13 6z"/>
<path d="M1945 840 c10 -11 20 -20 23 -20 3 0 -3 9 -13 20 -10 11 -20 20 -23
20 -3 0 3 -9 13 -20z"/>
<path d="M476 833 c-6 -14 -5 -15 5 -6 7 7 10 15 7 18 -3 3 -9 -2 -12 -12z"/>
<path d="M1652 828 c2 -7 -5 -12 -14 -12 -10 1 -15 -2 -12 -7 3 -5 -5 -18 -17
-28 -17 -14 -19 -20 -9 -26 9 -5 11 -4 6 3 -4 7 3 16 16 23 30 13 52 46 38 54
-6 4 -9 1 -8 -7z"/>
<path d="M598 823 c12 -2 20 -8 17 -13 -3 -5 5 -14 17 -20 20 -9 21 -9 7 2 -9
7 -16 18 -15 23 1 6 -10 11 -24 12 -22 1 -23 1 -2 -4z"/>
<path d="M1870 821 c0 -6 4 -13 10 -16 6 -3 7 1 4 9 -7 18 -14 21 -14 7z"/>
<path d="M1842 804 c-7 -8 -8 -14 -3 -14 10 0 25 19 20 25 -2 1 -10 -3 -17
-11z"/>
<path d="M455 800 c-3 -5 -1 -10 4 -10 6 0 11 5 11 10 0 6 -2 10 -4 10 -3 0
-8 -4 -11 -10z"/>
<path d="M583 799 c9 -6 15 -14 12 -20 -4 -5 -1 -9 4 -9 6 0 11 4 11 8 0 12
-22 32 -34 32 -6 0 -3 -5 7 -11z"/>
<path d="M1976 795 c-9 -26 -7 -32 5 -12 6 10 9 21 6 23 -2 3 -7 -2 -11 -11z"/>
<path d="M1780 779 c0 -5 5 -7 10 -4 6 3 10 8 10 11 0 2 -4 4 -10 4 -5 0 -10
-5 -10 -11z"/>
<path d="M1815 783 c3 -3 -2 -11 -10 -17 -11 -8 -12 -15 -4 -26 9 -12 10 -12
5 4 -5 13 -2 17 8 13 14 -6 17 17 3 28 -4 3 -5 2 -2 -2z"/>
<path d="M1855 780 c-3 -5 -3 -10 2 -10 4 0 2 -4 -5 -9 -11 -7 -11 -9 0 -14
10 -3 14 3 14 19 0 26 -2 29 -11 14z"/>
<path d="M513 765 c0 -8 4 -12 9 -9 5 3 6 10 3 15 -9 13 -12 11 -12 -6z"/>
<path d="M1750 770 c0 -5 5 -10 10 -10 6 0 10 5 10 10 0 6 -4 10 -10 10 -5 0
-10 -4 -10 -10z"/>
<path d="M613 757 c-3 -6 -1 -7 5 -3 5 3 13 0 15 -6 4 -10 6 -10 6 0 1 6 6 12
12 12 5 0 7 -5 4 -10 -3 -6 1 -13 9 -16 9 -3 13 -10 10 -15 -3 -5 3 -6 12 -2
11 4 13 8 6 11 -7 2 -10 8 -7 13 4 5 -1 6 -10 3 -10 -4 -15 -2 -13 7 4 16 -39
21 -49 6z"/>
<path d="M1913 745 c0 -8 4 -12 9 -9 5 3 6 10 3 15 -9 13 -12 11 -12 -6z"/>
<path d="M628 703 c10 -4 10 -8 0 -21 -10 -14 -9 -14 8 1 11 9 24 15 27 12 4
-3 5 -2 2 2 -3 4 -16 8 -28 9 -12 2 -16 0 -9 -3z"/>
<path d="M685 699 c-5 -8 -4 -10 0 -6 5 4 15 -3 22 -15 7 -13 12 -18 13 -12 0
5 -6 18 -13 29 -12 15 -15 16 -22 4z"/>
<path d="M1915 700 c3 -5 8 -10 11 -10 2 0 4 5 4 10 0 6 -5 10 -11 10 -5 0 -7
-4 -4 -10z"/>
<path d="M731 684 c0 -11 3 -14 6 -6 3 7 2 16 -1 19 -3 4 -6 -2 -5 -13z"/>
<path d="M1685 680 c-3 -6 1 -7 9 -4 18 7 21 14 7 14 -6 0 -13 -4 -16 -10z"/>
<path d="M1760 680 c8 -5 20 -10 25 -10 6 0 3 5 -5 10 -8 5 -19 10 -25 10 -5
0 -3 -5 5 -10z"/>
<path d="M753 665 c0 -8 4 -15 9 -15 4 0 8 4 8 9 0 6 -4 12 -8 15 -5 3 -9 -1
-9 -9z"/>
<path d="M1707 669 c-9 -6 -15 -14 -12 -20 4 -5 2 -9 -4 -9 -5 0 -12 6 -14 13
-4 9 -6 9 -6 0 -1 -7 8 -17 18 -23 16 -8 19 -7 17 8 -2 9 4 22 13 29 20 15 13
16 -12 2z"/>
<path d="M660 660 c-9 -6 -10 -10 -3 -10 6 0 15 5 18 10 8 12 4 12 -15 0z"/>
<path d="M1735 660 c-3 -6 1 -7 9 -4 18 7 21 14 7 14 -6 0 -13 -4 -16 -10z"/>
<path d="M700 644 c0 -1 8 -8 17 -15 9 -8 14 -9 10 -2 -4 6 -1 13 5 16 7 3 3
4 -9 4 -13 -1 -23 -2 -23 -3z"/>
<path d="M1815 640 c3 -5 8 -10 11 -10 2 0 4 5 4 10 0 6 -5 10 -11 10 -5 0 -7
-4 -4 -10z"/>
<path d="M613 625 c0 -8 4 -12 9 -9 5 3 6 10 3 15 -9 13 -12 11 -12 -6z"/>
<path d="M690 621 c0 -6 4 -13 10 -16 6 -3 7 1 4 9 -7 18 -14 21 -14 7z"/>
<path d="M1654 615 c-4 -8 -11 -12 -17 -8 -6 3 -7 1 -3 -6 4 -6 11 -9 16 -6 4
3 11 -1 14 -7 3 -7 3 -3 0 9 -4 18 -2 22 10 17 9 -3 16 -4 16 -1 0 13 -31 15
-36 2z"/>
<path d="M1755 620 c-3 -5 -1 -10 4 -10 6 0 11 5 11 10 0 6 -2 10 -4 10 -3 0
-8 -4 -11 -10z"/>
<path d="M755 609 c-11 -16 -1 -19 13 -3 7 8 8 14 3 14 -5 0 -13 -5 -16 -11z"/>
<path d="M790 605 c0 -5 5 -17 10 -25 5 -8 10 -10 10 -5 0 6 -5 17 -10 25 -5
8 -10 11 -10 5z"/>
<path d="M850 600 c8 -5 20 -10 25 -10 6 0 3 5 -5 10 -8 5 -19 10 -25 10 -5 0
-3 -5 5 -10z"/>
<path d="M1710 601 c0 -6 4 -12 8 -15 5 -3 9 1 9 9 0 8 -4 15 -9 15 -4 0 -8
-4 -8 -9z"/>
<path d="M956 582 c2 -3 -4 -11 -14 -18 -19 -15 -5 -19 18 -4 10 6 12 12 4 18
-6 5 -9 7 -8 4z"/>
<path d="M1690 576 c0 -2 8 -10 18 -17 15 -13 16 -12 3 4 -13 16 -21 21 -21
13z"/>
<path d="M816 553 c-6 -14 -5 -15 5 -6 7 7 10 15 7 18 -3 3 -9 -2 -12 -12z"/>
<path d="M855 561 c-4 -7 0 -8 10 -5 10 4 15 2 13 -6 -2 -7 4 -15 12 -17 12
-4 12 -3 2 5 -8 5 -13 13 -12 18 2 13 -17 17 -25 5z"/>
<path d="M983 565 c4 -5 -3 -15 -15 -22 -13 -7 -18 -12 -12 -13 5 0 18 6 29
13 15 12 16 15 4 22 -8 5 -10 4 -6 0z"/>
<path d="M1631 567 c2 -2 11 -8 20 -15 12 -9 16 -9 16 1 0 7 -9 14 -20 14 -11
1 -18 1 -16 0z"/>
<path d="M1787 559 c7 -7 15 -10 18 -7 3 3 -2 9 -12 12 -14 6 -15 5 -6 -5z"/>
<path d="M755 551 c-3 -5 -2 -12 3 -15 5 -3 9 1 9 9 0 17 -3 19 -12 6z"/>
<path d="M1013 550 c2 -8 10 -14 17 -12 8 2 10 -3 7 -13 -4 -8 -2 -15 4 -15 6
0 9 7 7 16 -2 8 -7 14 -12 14 -5 -1 -13 4 -18 12 -8 10 -9 10 -5 -2z"/>
<path d="M1555 549 c-4 -6 -5 -12 -2 -15 2 -3 7 2 10 11 7 17 1 20 -8 4z"/>
<path d="M1588 543 c7 -3 16 -2 19 1 4 3 -2 6 -13 5 -11 0 -14 -3 -6 -6z"/>
<path d="M918 533 c7 -3 16 -2 19 1 4 3 -2 6 -13 5 -11 0 -14 -3 -6 -6z"/>
<path d="M1070 535 c0 -5 5 -17 10 -25 5 -8 10 -10 10 -5 0 6 -5 17 -10 25 -5
8 -10 11 -10 5z"/>
<path d="M1493 533 c-16 -6 -17 -29 -1 -39 7 -4 8 -3 4 5 -4 6 -2 18 4 26 13
16 12 16 -7 8z"/>
<path d="M804 518 c-3 -4 5 -5 17 -3 30 6 36 14 9 12 -12 -1 -24 -5 -26 -9z"/>
<path d="M987 510 c-3 -11 -3 -20 -1 -20 2 0 8 9 14 20 6 11 7 20 2 20 -6 0
-12 -9 -15 -20z"/>
<path d="M1110 515 c0 -8 2 -15 4 -15 2 0 6 7 10 15 3 8 1 15 -4 15 -6 0 -10
-7 -10 -15z"/>
<path d="M1573 513 c0 -9 4 -10 13 -2 7 6 19 7 25 3 7 -4 9 -3 5 4 -9 15 -43
11 -43 -5z"/>
<path d="M775 500 c3 -5 8 -10 11 -10 2 0 4 5 4 10 0 6 -5 10 -11 10 -5 0 -7
-4 -4 -10z"/>
<path d="M915 501 c-3 -5 -2 -12 3 -15 5 -3 9 1 9 9 0 17 -3 19 -12 6z"/>
<path d="M948 503 c10 -4 9 -10 -5 -27 l-18 -21 22 19 c23 19 22 37 0 35 -8 0
-8 -2 1 -6z"/>
<path d="M1013 503 c4 -6 2 -13 -4 -15 -7 -2 -6 -8 3 -16 12 -9 14 -8 13 8 -1
11 -5 23 -10 27 -4 5 -5 3 -2 -4z"/>
<path d="M1055 501 c-6 -11 6 -20 35 -26 11 -2 20 1 20 6 0 5 -6 9 -12 8 -26
-3 -39 1 -33 11 3 6 4 10 1 10 -3 0 -7 -4 -11 -9z"/>
<path d="M1350 500 c0 -5 5 -10 11 -10 5 0 7 5 4 10 -3 6 -8 10 -11 10 -2 0
-4 -4 -4 -10z"/>
<path d="M1390 500 c-13 -8 -12 -10 3 -10 9 0 17 5 17 10 0 12 -1 12 -20 0z"/>
<path d="M1520 500 c-9 -6 -10 -10 -3 -10 6 0 15 5 18 10 8 12 4 12 -15 0z"/>
<path d="M1212 480 c0 -14 2 -19 5 -12 2 6 2 18 0 25 -3 6 -5 1 -5 -13z"/>
<path d="M1238 493 c7 -3 16 -2 19 1 4 3 -2 6 -13 5 -11 0 -14 -3 -6 -6z"/>
<path d="M1330 491 c0 -6 4 -13 10 -16 6 -3 7 1 4 9 -7 18 -14 21 -14 7z"/>
<path d="M890 481 c0 -6 4 -13 10 -16 6 -3 7 1 4 9 -7 18 -14 21 -14 7z"/>
<path d="M1185 479 c-4 -6 -5 -12 -2 -15 2 -3 7 2 10 11 7 17 1 20 -8 4z"/>
<path d="M1307 471 c-3 -13 -1 -18 9 -14 7 2 10 11 7 19 -7 19 -10 18 -16 -5z"/>
<path d="M1455 479 c-4 -6 -4 -13 -1 -16 3 -4 6 -1 6 7 0 10 4 10 18 -1 15
-13 16 -12 3 4 -16 20 -18 20 -26 6z"/>
<path d="M1553 473 c0 -9 4 -10 14 -2 7 6 13 12 13 14 0 1 -6 2 -13 2 -8 0
-14 -6 -14 -14z"/>
<path d="M1613 465 c0 -8 4 -12 9 -9 5 3 6 10 3 15 -9 13 -12 11 -12 -6z"/>
<path d="M994 453 c16 -20 36 -23 36 -6 0 4 -3 3 -7 0 -3 -4 -16 1 -27 10 -21
18 -21 18 -2 -4z"/>
<path d="M1273 445 c0 -8 4 -12 9 -9 5 3 6 10 3 15 -9 13 -12 11 -12 -6z"/>
<path d="M680 446 c0 -2 8 -10 18 -17 15 -13 16 -12 3 4 -13 16 -21 21 -21 13z"/>
<path d="M740 446 c0 -2 8 -10 18 -17 15 -13 16 -12 3 4 -13 16 -21 21 -21 13z"/>
<path d="M880 440 c-9 -6 -10 -10 -3 -10 6 0 15 5 18 10 8 12 4 12 -15 0z"/>
<path d="M946 438 c3 -5 10 -6 15 -3 13 9 11 12 -6 12 -8 0 -12 -4 -9 -9z"/>
<path d="M1436 438 c3 -5 10 -6 15 -3 13 9 11 12 -6 12 -8 0 -12 -4 -9 -9z"/>
<path d="M1556 442 c-3 -5 1 -9 9 -9 8 0 12 4 9 9 -3 4 -7 8 -9 8 -2 0 -6 -4
-9 -8z"/>
<path d="M1186 418 c3 -4 9 -8 15 -8 5 0 9 4 9 8 0 5 -7 9 -15 9 -8 0 -12 -4
-9 -9z"/>
<path d="M1340 426 c0 -2 8 -10 18 -17 15 -13 16 -12 3 4 -13 16 -21 21 -21
13z"/>
<path d="M1096 407 c3 -10 9 -15 12 -12 3 3 0 11 -7 18 -10 9 -11 8 -5 -6z"/>
<path d="M1270 395 c13 -14 26 -25 28 -25 3 0 -5 11 -18 25 -13 14 -26 25 -28
25 -3 0 5 -11 18 -25z"/>
<path d="M1055 391 c-3 -5 -2 -12 3 -15 5 -3 9 1 9 9 0 17 -3 19 -12 6z"/>
<path d="M1215 391 c-3 -5 -2 -12 3 -15 5 -3 9 1 9 9 0 17 -3 19 -12 6z"/>
<path d="M1395 379 c-3 -4 2 -6 10 -5 21 3 28 13 10 13 -9 0 -18 -4 -20 -8z"/>
<path d="M925 360 c-3 -6 1 -7 9 -4 18 7 21 14 7 14 -6 0 -13 -4 -16 -10z"/>
<path d="M1253 359 c-5 -5 -25 -11 -44 -13 -19 -2 -42 -6 -51 -10 -41 -14 -54
-18 -77 -22 -13 -3 -44 -15 -70 -27 -37 -18 -46 -27 -46 -47 l1 -25 311 -3
c276 -2 311 -1 317 14 10 27 -12 52 -61 69 -27 10 -55 20 -63 23 -8 3 -21 6
-29 8 -7 1 -34 7 -60 13 -25 6 -58 13 -73 15 -15 3 -32 7 -36 10 -5 3 -13 1
-19 -5z"/>
</g>
</svg>
